<svg width="21" height="21" viewBox="0 0 21 21" fill="none" xmlns="http://www.w3.org/2000/svg">
<path d="M11.5078 6.98438L4.92188 0.492188L0.679688 4.54688L0.867188 5.10938C1.03906 5.6875 1.22266 6.21875 1.41797 6.70312C1.61328 7.1875 1.8125 7.66406 2.01562 8.13281L1.94531 7.96875C2.24219 8.59375 2.55469 9.20312 2.88281 9.79688C3.21094 10.3906 3.5625 10.9727 3.9375 11.543C4.3125 12.1133 4.71875 12.6641 5.15625 13.1953C5.57812 13.7266 6.03125 14.2422 6.51562 14.7422C7 15.2266 7.5 15.6797 8.01562 16.1016C8.54688 16.5391 9.08984 16.9453 9.64453 17.3203C10.1992 17.6953 10.7734 18.0469 11.3672 18.375C11.9453 18.7031 12.5391 19.0078 13.1484 19.2891C13.5703 19.4766 13.9805 19.6484 14.3789 19.8047C14.7773 19.9609 15.1562 20.1016 15.5156 20.2266L15.9141 20.3438L16.4531 20.5078L20.6953 16.3359L14.1562 9.67969L12.1641 11.6953L9.51562 9.02344L11.5078 6.98438ZM4.89844 3.16406L8.8125 7.00781L6.84375 9.02344L12.1641 14.4141L14.1562 12.3984L18 16.3125L15.9141 18.3516L16.1016 18.3984C15.6641 18.2578 15.2578 18.1133 14.8828 17.9648C14.5078 17.8164 14.1484 17.6641 13.8047 17.5078L13.9219 17.5547C12.8125 17.0547 11.7461 16.457 10.7227 15.7617C9.69922 15.0664 8.75 14.2812 7.875 13.4062C7.4375 12.9531 7.02344 12.4844 6.63281 12C6.22656 11.5156 5.85156 11.0117 5.50781 10.4883C5.16406 9.96484 4.83594 9.42188 4.52344 8.85938C4.22656 8.3125 3.94531 7.75 3.67969 7.17188L3.51562 6.77344C3.4375 6.60156 3.34766 6.39844 3.24609 6.16406C3.14453 5.92969 3.05469 5.6875 2.97656 5.4375L2.90625 5.27344L2.85938 5.10938L4.89844 3.16406Z" fill="#222222"/>
</svg>
