<svg width="21" height="21" viewBox="0 0 21 21" fill="none" xmlns="http://www.w3.org/2000/svg">
<path d="M10.3477 0.492188C11.7227 0.492188 13.0195 0.757812 14.2383 1.28906C15.457 1.80469 16.5195 2.51562 17.4258 3.42188C18.332 4.32812 19.043 5.39062 19.5586 6.60938C20.0898 7.82812 20.3555 9.125 20.3555 10.5C20.3555 11.875 20.0898 13.1719 19.5586 14.3906C19.043 15.6094 18.332 16.6719 17.4258 17.5781C16.5195 18.4844 15.457 19.1953 14.2383 19.7109C13.0195 20.2422 11.7227 20.5078 10.3477 20.5078C8.97266 20.5078 7.67578 20.2422 6.45703 19.7109C5.23828 19.1953 4.17578 18.4844 3.26953 17.5781C2.36328 16.6719 1.65234 15.6094 1.13672 14.3906C0.605469 13.1719 0.339844 11.875 0.339844 10.5C0.339844 9.125 0.605469 7.82812 1.13672 6.60938C1.65234 5.39062 2.36328 4.32812 3.26953 3.42188C4.17578 2.51562 5.23828 1.80469 6.45703 1.28906C7.67578 0.757812 8.97266 0.492188 10.3477 0.492188ZM10.3477 2.50781C9.23828 2.50781 8.19922 2.71094 7.23047 3.11719C6.26172 3.53906 5.41406 4.11328 4.6875 4.83984C3.96094 5.56641 3.38672 6.41406 2.96484 7.38281C2.55859 8.35156 2.35547 9.39062 2.35547 10.5C2.35547 11.6094 2.55859 12.6484 2.96484 13.6172C3.38672 14.5859 3.96094 15.4336 4.6875 16.1602C5.41406 16.8867 6.26172 17.4609 7.23047 17.8828C8.19922 18.2891 9.23828 18.4922 10.3477 18.4922C11.457 18.4922 12.4961 18.2891 13.4648 17.8828C14.4336 17.4609 15.2812 16.8867 16.0078 16.1602C16.7344 15.4336 17.3086 14.5859 17.7305 13.6172C18.1367 12.6484 18.3398 11.6094 18.3398 10.5C18.3398 9.39062 18.1367 8.35156 17.7305 7.38281C17.3086 6.41406 16.7344 5.56641 16.0078 4.83984C15.2812 4.11328 14.4336 3.53906 13.4648 3.11719C12.4961 2.71094 11.457 2.50781 10.3477 2.50781ZM10.3477 14.5078C10.6289 14.5078 10.8672 14.6055 11.0625 14.8008C11.2578 14.9961 11.3555 15.2266 11.3555 15.4922C11.3555 15.7734 11.2578 16.0117 11.0625 16.207C10.8672 16.4023 10.6289 16.5 10.3477 16.5C10.0664 16.5 9.82812 16.4023 9.63281 16.207C9.4375 16.0117 9.33984 15.7734 9.33984 15.4922C9.33984 15.2266 9.4375 14.9961 9.63281 14.8008C9.82812 14.6055 10.0664 14.5078 10.3477 14.5078ZM10.3477 4.5C11.457 4.5 12.4023 4.89062 13.1836 5.67188C13.9648 6.45312 14.3555 7.39844 14.3555 8.50781C14.3555 9.42969 14.0742 10.2461 13.5117 10.957C12.9492 11.668 12.2383 12.1406 11.3789 12.375H11.3555V13.5H9.33984V10.5H10.3477C10.8945 10.5 11.3633 10.3047 11.7539 9.91406C12.1445 9.52344 12.3398 9.05469 12.3398 8.50781C12.3398 7.94531 12.1445 7.46875 11.7539 7.07812C11.3633 6.6875 10.8945 6.49219 10.3477 6.49219C9.80078 6.49219 9.33203 6.6875 8.94141 7.07812C8.55078 7.46875 8.35547 7.94531 8.35547 8.50781H6.33984C6.33984 7.39844 6.73047 6.45312 7.51172 5.67188C8.29297 4.89062 9.23828 4.5 10.3477 4.5Z" fill="#222222"/>
</svg>
